<svg xmlns="http://www.w3.org/2000/svg" version="1.1" xmlns:xlink="http://www.w3.org/1999/xlink" xmlns:svgjs="http://svgjs.dev/svgjs" width="100%" height="100%" viewBox="0 0 1000 600"><rect width="1000" height="600" x="0" y="0" fill="#3e24d1"/><g><rect width="333.3333333333333" height="333.3333333333333" y="329.30578756117234" fill="#ffffff" transform="matrix(0.4070553051910893,0,0,0.4070553051910893,0,98.11177255637848)" x="307.08349609375006"/><path d="M533.3242294355309 421.1739018591451L533.3242294355309 421.1739018591451Q533.9573837079078 420.9724436815706 536.1158641819198 420.9724436815706Q538.3031243955853 420.9724436815706 541.5264552367765 422.09485352805683Q544.7210063383144 423.2460431141966 544.7210063383144 424.59869087791077Q544.7210063383144 425.9225589019715 542.5625258643023 430.58487672583743Q540.3752656506368 435.24719454970335 534.7919961578591 447.47858390243806L534.7919961578591 447.47858390243806L526.7048893152274 464.8903263928016Q523.1649813378477 472.3442789630564 514.1569228263044 490.0725985896084Q505.14886431476083 507.7721384765068 501.20603998223226 516.8953159466643Q497.2632156497036 526.0184934168217 489.4926859432604 541.0415175159453Q481.72215623681717 556.0645416150688 479.8802528989936 560.3239430837859Q478.00956982151655 564.5545648128493 476.7720410164163 566.4252478903265L476.7720410164163 566.4252478903265Q474.0667454889879 570.9724467555784 469.7210048013104 570.9724467555784L469.7210048013104 570.9724467555784Q465.77818046878184 570.9724467555784 462.6699685862045 565.1877190852263L462.6699685862045 565.1877190852263Q461.8353561362532 563.7199523628981 461.31732082249033 562.9141196526002Q460.79928550872745 562.079507202649 459.96467305877616 560.208824125172Q459.1588403484783 558.3381410476948 457.8061925847641 555.7479644788805Q456.45354482104995 553.157787910066 451.791226997184 543.5165751261457Q447.12890917331805 533.904142081879 444.9416489596526 529.6447406131618Q442.78316848564054 525.3853391444447 423.7022010953744 482.70498523831407L423.7022010953744 482.70498523831407Q414.3775654476425 460.7460438826986 410.03182475996505 448.42831531100336Q405.6860840722875 436.0818069996547 404.6500134447617 433.8082075670287L404.6500134447617 433.8082075670287Q402.7793303672847 428.62785442939986 402.7793303672847 426.55571317434834Q402.7793303672847 424.4835719192968 408.2762606411019 422.7280078004337Q413.77319091491916 420.9724436815706 416.36336748373355 420.9724436815706Q418.95354405254795 420.9724436815706 419.9896146800737 421.69193717290796Q421.02568530759953 422.4114306642453 422.14809515408575 424.3684529606829Q423.2992847402255 426.3542549967739 423.7022010953744 427.5917838018741L423.7022010953744 427.5917838018741Q426.4074966228028 433.17505329465183 439.9915337392517 464.7752074341876Q453.54679111604713 496.3753615737234 459.96467305877616 512.7510334365612L459.96467305877616 512.7510334365612Q471.79314605636193 541.1566364745593 473.66382913383904 541.1566364745593L473.66382913383904 541.1566364745593Q474.6998997613648 541.1566364745593 476.4554638802279 537.3001513609911Q478.211027999091 533.4724459870765 484.2259935866711 521.1547174153814Q490.24095917425126 508.80820910403264 496.6588411169803 495.77098704100007L496.6588411169803 495.77098704100007Q511.163829902341 465.2932427479505 524.6327480601759 435.67889064450577L524.6327480601759 435.67889064450577Q530.417475730528 422.20997248667084 533.3242294355309 421.1739018591451Z " fill="#3657ff" transform="matrix(0.4070553051910893,0,0,0.4070553051910893,0,98.11177255637848)"/><path d="M818.434277974771 425.04285808408224L818.434277974771 425.04285808408224Q818.8935042441798 424.89674063472495 820.4590483444368 424.89674063472495Q822.0454663660306 424.89674063472495 824.3833455557477 425.71082356685855Q826.7003508241279 426.545780420329 826.7003508241279 427.52685472315665Q826.7003508241279 428.4870551046476 825.1348067238711 431.86863036120275Q823.5483887022773 435.25020561775784 819.4988479629459 444.1216221858808L819.4988479629459 444.1216221858808L813.6332760673162 456.75034459462057Q811.0657837428947 462.1566902208414 804.532246364489 475.01502576428555Q797.998708986083 487.8524873863929 795.1389817629469 494.4695204501458Q792.2792545398107 501.0865535138987 786.6432957788855 511.9827404516874Q781.0073370179604 522.8789273894761 779.6714060524079 525.9682677473165Q778.3146011655184 529.0367341838203 777.4170225480377 530.3935390707097L777.4170225480377 530.3935390707097Q775.4548739423823 533.6916186419178 772.3029118205316 533.6916186419178L772.3029118205316 533.6916186419178Q769.4431845973954 533.6916186419178 767.1888010930253 529.4959604532289L767.1888010930253 529.4959604532289Q766.5834573742593 528.4313904650542 766.2077267901976 527.846920667625Q765.831996206136 527.2415769488589 765.22665248737 525.8847720619694Q764.6421826899406 524.5279671750801 763.6611083871129 522.6493142547718Q762.6800340842852 520.7706613344633 759.2984588277301 513.7778976866487Q755.9168835711749 506.8060079601709 754.3304655495812 503.71666760233046Q752.7649214493242 500.62732724449 738.9255116030523 469.67130190207496L738.9255116030523 469.67130190207496Q732.1623610899422 453.74449992212715 729.0103989680914 444.8104615899939Q725.8584368462406 435.8555493365239 725.1069756781172 434.20650955091986L725.1069756781172 434.20650955091986Q723.7501707912279 430.44920371030304 723.7501707912279 428.94628137405635Q723.7501707912279 427.4433590378096 727.737089766549 426.17004983626725Q731.7240087418702 424.89674063472495 733.6026616621785 424.89674063472495Q735.481314582487 424.89674063472495 736.2327757506104 425.4185886681439Q736.9842369187337 425.94043670156293 737.7983198508674 427.3598633524626Q738.6332767043377 428.800163924699 738.9255116030523 429.6977425421797L738.9255116030523 429.6977425421797Q740.8876602087079 433.7472832815111 750.7401510796585 456.66684890927354Q760.5717680292724 479.586414537036 765.22665248737 491.4636757776523L765.22665248737 491.4636757776523Q773.8058341567782 512.0662361370344 775.1626390436676 512.0662361370344L775.1626390436676 512.0662361370344Q775.914100211791 512.0662361370344 777.1874094133334 509.2691306779086Q778.4607186148756 506.4928991401195 782.8233681742586 497.55886080798626Q787.1860177336414 488.60394855451625 791.8409021917388 479.148062188964L791.8409021917388 479.148062188964Q802.3613585454658 457.0425794933352 812.1303537310695 435.56331443780925L812.1303537310695 435.56331443780925Q816.3260119197583 425.7943192522056 818.434277974771 425.04285808408224ZM871.3496685634574 532.0425788563136L871.3496685634574 532.0425788563136Q866.8409015547173 532.0425788563136 867.133136453432 527.0954594995017L867.133136453432 527.0954594995017Q867.133136453432 525.4255457925608 866.6739101840232 525.4255457925608L866.6739101840232 525.4255457925608Q865.4840966678279 525.8847720619694 861.8729082765684 527.9930381169822L861.8729082765684 527.9930381169822Q843.9839576909652 538.9518468187812 830.4576566647448 529.3498430038717L830.4576566647448 529.3498430038717Q824.2998498704006 524.9871934444889 824.2998498704006 517.326464313898L824.2998498704006 517.326464313898Q824.2998498704006 505.74143797199616 835.049919358832 500.48120979513266Q845.7999888472633 495.22098161826915 861.7267908272112 495.22098161826915L861.7267908272112 495.22098161826915Q864.5865180503473 495.22098161826915 865.9224490158998 495.3670990676265L865.9224490158998 495.3670990676265Q865.9224490158998 492.8204806645418 866.089440386594 491.77678459770374L866.089440386594 491.77678459770374Q866.089440386594 483.19760292829545 861.3510602431494 478.91844905425967Q856.612680099705 474.6392951802239 848.2004898009908 474.6392951802239L848.2004898009908 474.6392951802239Q844.1300751403224 474.6392951802239 839.4751906822252 475.82910869641915Q834.8203062241276 477.03979613395126 833.4635013372382 477.03979613395126Q832.1066964503487 477.03979613395126 831.2926135182153 475.3907563483472Q830.4576566647448 473.7417165627432 830.4576566647448 471.0281067889644Q830.4576566647448 468.3144970151856 837.1581854138448 466.74895291492857Q843.837840241608 465.16253489333485 849.9956470359522 465.16253489333485L849.9956470359522 465.16253489333485Q864.5865180503473 465.16253489333485 872.1637514955911 472.82326402392573Q879.7618588621718 480.5048670758534 879.7618588621718 495.22098161826915L879.7618588621718 495.22098161826915L879.7618588621718 526.1770069606841Q879.7618588621718 530.2474216213523 878.2589365259252 531.1450002388331Q876.7560141896782 532.0425788563136 871.3496685634574 532.0425788563136ZM865.7763315665426 516.2618943257232L865.7763315665426 516.2618943257232Q866.089440386594 512.0662361370344 866.089440386594 507.2443603082429Q866.089440386594 502.4433584007881 865.9224490158998 501.83801468202205L865.9224490158998 501.83801468202205Q845.1946451284972 503.8001632876775 840.6858781197571 509.35262636325564L840.6858781197571 509.35262636325564Q838.2853771660297 512.2123535863918 838.2853771660297 515.9696594270085L838.2853771660297 515.9696594270085Q838.2853771660297 523.9226234563141 850.1417644853094 523.9226234563141L850.1417644853094 523.9226234563141Q856.1534538302961 523.9226234563141 860.8918339737407 521.1463919185251Q865.6302141171853 518.3701603807359 865.7763315665426 516.2618943257232ZM901.5542327377492 496.7239039545159L901.5542327377492 480.94321942392537L901.2411239176978 450.27942898022496Q901.2411239176978 447.2735843077316 901.3246196030449 444.4973527699425Q901.4081152883917 441.7211212321534 901.4081152883917 439.61285517714066L901.4081152883917 439.61285517714066L901.4081152883917 432.55746976531583Q901.4081152883917 425.7943192522056 902.3683156698827 423.3938182984782Q903.3493899727106 420.97244342341406 908.2338875655124 420.97244342341406Q913.1183851583143 420.97244342341406 914.3290725958462 421.66128282752715Q915.5188861120415 422.3292483103034 915.5188861120415 424.72974926403083L915.5188861120415 424.72974926403083L915.6858774827357 480.191758255802L915.8319949320929 513.2560496532298Q915.8319949320929 517.7648166619699 918.5247307845349 520.4784264357487Q921.2383405583138 523.1711622881908 924.703411500216 523.1711622881908Q928.1476085207813 523.1711622881908 931.6753012266937 522.357079356057Q935.2238678539428 521.5221225025866 936.1214464714236 521.5221225025866L936.1214464714236 521.5221225025866Q938.0627211557422 521.5221225025866 938.0627211557422 523.9226234563141L938.0627211557422 523.9226234563141Q938.0627211557422 529.0367341838203 931.0073357439175 531.4372351375476L931.0073357439175 531.4372351375476Q926.0393424657685 532.9401574737944 920.4033837048433 532.9401574737944Q914.7674249439182 532.9401574737944 911.3232279233529 530.9988827894757Q907.8581569814506 529.0367341838203 905.9795040611422 526.1770069606841Q904.1008511408339 523.3381536588847 903.0571550739959 518.0779254820213L903.0571550739959 518.0779254820213Q901.5542327377492 510.70943125014503 901.5542327377492 496.7239039545159L901.5542327377492 496.7239039545159ZM950.0860998457159 496.7239039545159L950.0860998457159 480.94321942392537L949.7938649470015 450.27942898022496Q949.7938649470015 447.2735843077316 949.8773606323483 444.4973527699425Q949.9399823963587 441.7211212321534 949.9399823963587 439.61285517714066L949.9399823963587 439.61285517714066L949.9399823963587 432.55746976531583Q949.9399823963587 425.7943192522056 950.9210566991864 423.3938182984782Q951.902131002014 420.97244342341406 956.7866285948161 420.97244342341406Q961.6711261876177 420.97244342341406 962.8609397038132 421.66128282752715Q964.0716271413452 422.3292483103034 964.0716271413452 424.72974926403083L964.0716271413452 424.72974926403083L964.2177445907024 480.191758255802L964.3638620400599 513.2560496532298Q964.3638620400599 517.7648166619699 967.0774718138385 520.4784264357487Q969.7910815876174 523.1711622881908 973.2352786081827 523.1711622881908Q976.700349550085 523.1711622881908 980.2280422559974 522.357079356057Q983.7557349619098 521.5221225025866 984.6533135793906 521.5221225025866L984.6533135793906 521.5221225025866Q986.6154621850459 521.5221225025866 986.6154621850459 523.9226234563141L986.6154621850459 523.9226234563141Q986.6154621850459 529.0367341838203 979.5600767732211 531.4372351375476L979.5600767732211 531.4372351375476Q974.5920834950722 532.9401574737944 968.956124734147 532.9401574737944Q963.3201659732218 532.9401574737944 959.8550950313196 530.9988827894757Q956.4108980107543 529.0367341838203 954.5322450904458 526.1770069606841Q952.6535921701376 523.3381536588847 951.5890221819628 518.0779254820213L951.5890221819628 518.0779254820213Q950.0860998457159 510.70943125014503 950.0860998457159 496.7239039545159L950.0860998457159 496.7239039545159ZM1049.8843177567655 494.7826292701972L1049.8843177567655 494.7826292701972Q1049.8843177567655 494.7826292701972 1015.4632214724483 494.9287467195545L1015.4632214724483 494.9287467195545Q1009.9107583968699 494.9287467195545 1009.0131797793894 495.8263253370352L1009.0131797793894 495.8263253370352Q1008.261718611266 496.8700214038732 1008.261718611266 499.2913962789373L1008.261718611266 499.2913962789373Q1008.261718611266 511.00166614885967 1014.9413734390292 517.2429686285509Q1021.6419021881292 523.4842711082422 1030.2002099362007 523.4842711082422Q1038.7585176842722 523.4842711082422 1043.5803935130639 521.229887603872L1043.5803935130639 521.229887603872Q1043.7265109624213 521.229887603872 1046.5862381855572 519.2677389982166Q1049.4459654086932 517.326464313898 1050.5731571608785 517.326464313898Q1051.7003489130634 517.326464313898 1052.2848187104928 518.2240429313786Q1052.890162429259 519.1216215488594 1052.890162429259 520.0192001663399L1052.890162429259 520.0192001663399Q1052.890162429259 525.7386546126122 1044.4779721305445 529.7255735879334Q1036.0657818318305 533.6916186419178 1024.8564860739903 533.6916186419178Q1013.6680642374869 533.6916186419178 1003.5233384678214 524.6740846244375Q993.3786126981562 515.6565506069571 993.3786126981562 500.33509234577537Q993.3786126981562 485.01363408459355 1002.9179947490555 475.0776475282958Q1012.4573767999547 465.16253489333485 1028.5511701505966 465.16253489333485L1028.5511701505966 465.16253489333485Q1040.2614400205189 465.16253489333485 1047.4838168030378 472.0718028558024L1047.4838168030378 472.0718028558024Q1055.1445459336287 479.29417963832134 1055.1445459336287 489.5224010933337L1055.1445459336287 489.5224010933337Q1055.1445459336287 494.7826292701972 1049.8843177567655 494.7826292701972ZM1010.8083370143507 487.4141350383209L1010.8083370143507 487.4141350383209Q1039.3638614030383 487.4141350383209 1043.8726284117784 487.1010262182695L1043.8726284117784 487.1010262182695Q1043.4342760637064 481.08933687328266 1039.3012396390282 477.18591358330855Q1035.1682032143494 473.28249029333443 1028.8434050493115 473.28249029333443Q1022.5394808056097 473.28249029333443 1017.049639494042 477.70776161672757Q1011.5597981824741 482.1539068614574 1010.8083370143507 487.4141350383209ZM1103.0919432441665 506.63901658947685L1103.0919432441665 506.63901658947685Q1105.4924441978937 504.2385156357495 1107.141483983498 500.9404360645414L1107.141483983498 500.9404360645414L1109.2497500385107 496.7239039545159Q1109.8550937572768 495.8263253370352 1114.969204484783 485.91121270207424L1114.969204484783 485.91121270207424Q1125.6357782878672 465.16253489333485 1128.0362792415945 465.16253489333485L1128.0362792415945 465.16253489333485Q1129.5392015778411 465.16253489333485 1132.1693156662732 466.51933978022424Q1134.7994297547048 467.87614466711364 1135.1125385747564 468.9198407339516L1135.1125385747564 468.9198407339516Q1135.1125385747564 469.67130190207496 1119.7075846282273 499.06178314423295Q1104.3026306816987 528.4313904650542 1103.0919432441665 530.8527653401184L1103.0919432441665 530.8527653401184Q1085.5161014786145 567.3612537581116 1082.510256806121 567.3612537581116L1082.510256806121 567.3612537581116Q1080.0888819310571 567.3612537581116 1077.2500286292575 566.0879445565693Q1074.3903014061216 564.8146353550269 1074.07719258607 563.7500653668521L1074.07719258607 563.7500653668521Q1074.07719258607 562.8524867493713 1076.3315760904402 557.9053673925594L1076.3315760904402 557.9053673925594Q1078.001489797381 554.8995227200658 1081.0073344698744 549.6392945432024L1081.0073344698744 549.6392945432024Q1088.0627198816992 537.3028070331773 1089.482146532599 534.0673492259793Q1090.9224471048356 530.8527653401184 1092.4879912050924 528.2226512516866Q1094.074409226686 525.5925371632549 1095.2850966642181 523.3381536588847Q1096.4749101804136 521.0837701545147 1096.4749101804136 520.3323089863914Q1096.4749101804136 519.580847818268 1092.8011000251436 514.7589719894765Q1089.1064159485372 509.9579700820217 1085.5161014786145 504.76036366916844Q1081.904913087355 499.58363117765197 1077.5422635279724 493.1127155632564Q1073.1796139685894 486.6626738701976 1071.9898004523943 484.8466427138995L1071.9898004523943 484.8466427138995L1068.5247295104919 479.586414537036Q1063.5567362323432 472.23879422649645 1063.5567362323432 470.5062587555454Q1063.5567362323432 468.7737232845943 1067.0218071742452 466.97856604963295Q1070.4868781161472 465.16253489333485 1072.1359179017513 465.16253489333485Q1073.7849576873555 465.16253489333485 1076.6446849104914 468.105757801818Q1079.5044121336277 471.0281067889644 1083.2617179742447 476.37183065117495Q1087.0190238148612 481.6946805920487 1090.170985936712 486.51655642084023Q1093.3229480585628 491.31755832829504 1097.3724887978942 497.7884739426906Q1101.4429034585623 504.2385156357495 1103.0919432441665 506.63901658947685ZM1273.0682846894024 426.545780420329L1278.0362779675515 426.6918978696863L1282.3989275269346 426.9841327684009Q1282.691162425649 438.42304166094533 1282.691162425649 472.0091810917921Q1282.691162425649 505.5953205226389 1282.2319361562404 513.1934278892195Q1281.7935838081685 520.7706613344633 1281.7935838081685 523.4842711082422L1281.7935838081685 523.4842711082422Q1281.7935838081685 528.7444992851056 1280.7290138199937 530.3935390707097Q1279.6853177531557 532.0425788563136 1274.508585261639 532.0425788563136Q1269.310978848786 532.0425788563136 1268.7891308153667 531.2284959241802Q1268.2672827819479 530.3935390707097 1268.2672827819479 527.0954594995017L1268.2672827819479 527.0954594995017L1268.2672827819479 519.1216215488594L1268.5595176806623 488.019478757087Q1268.5595176806623 483.0514854789381 1268.4134002313053 479.586414537036L1268.4134002313053 479.586414537036L1222.2820340770659 479.8995233570874Q1215.205774743904 479.8995233570874 1203.4955048739816 479.586414537036L1203.4955048739816 479.586414537036L1203.4955048739816 508.14193892572354L1203.641622323339 522.4197011200674Q1203.1823960539305 530.101304171995 1201.992582537735 530.9988827894757Q1200.7818951002032 531.8964614069564 1195.6051626086864 531.8964614069564Q1190.4075561958334 531.8964614069564 1189.0507513089437 531.4372351375476L1189.0507513089437 531.4372351375476Q1187.8609377927487 524.2357322763655 1187.8609377927487 515.5104331575999L1187.8609377927487 515.5104331575999L1188.0070552421057 498.68605256017133Q1188.0070552421057 475.5368737977045 1189.5099775783524 426.83801531904356L1189.5099775783524 426.83801531904356Q1191.6182436333652 426.6918978696863 1195.2920537886353 426.6918978696863Q1198.9867378652416 426.6918978696863 1200.176551381437 426.83801531904356Q1201.3872388189689 426.9841327684009 1202.5144305711542 427.81908962187134Q1203.641622323339 428.6540464753417 1203.641622323339 430.30308626094575L1203.641622323339 430.30308626094575L1203.4955048739816 436.92011932469865L1203.4955048739816 444.5808484552895Q1203.4955048739816 467.87614466711364 1203.641622323339 470.276645620841L1203.641622323339 470.276645620841L1259.3958662138248 469.98441072212637L1267.0565953444157 470.276645620841Q1268.2672827819479 470.276645620841 1268.4968959166522 469.90091503677934Q1268.7056351300198 469.52518445271767 1268.7056351300198 468.0222621164709L1268.7056351300198 468.0222621164709L1268.7056351300198 433.7472832815111Q1268.872626500714 432.8497046640304 1268.872626500714 431.3467823277837Q1268.872626500714 429.84385999153704 1268.9352482647241 429.238516272771Q1269.018743950071 428.6540464753417 1269.4570962981434 427.9025853072183L1269.4570962981434 427.9025853072183Q1270.062440016909 426.545780420329 1273.0682846894024 426.545780420329L1273.0682846894024 426.545780420329ZM1312.144265431817 445.4784270727702Q1310.6413430955704 445.0192008033615 1308.616572725905 442.38908671492976Q1306.591802356239 439.758972626498 1306.6544241202496 437.44196735811767Q1306.7379198055964 435.10408816840055 1309.660268792743 432.6200915293261Q1312.6034917012257 430.1569688115884 1317.2583761593232 430.1569688115884L1317.2583761593232 430.1569688115884Q1324.167644121791 430.1569688115884 1324.167644121791 436.7531279540046L1324.167644121791 436.7531279540046Q1324.167644121791 441.4288863334388 1321.2452951346445 443.68326983780884Q1318.3020722261613 445.9376533421789 1315.9850669577809 445.9376533421789Q1313.6471877680638 445.9376533421789 1312.144265431817 445.4784270727702ZM1321.4749082693488 477.6451398527173L1321.4749082693488 499.2913962789373L1321.9132606174207 529.0367341838203Q1321.9132606174207 530.8527653401184 1321.4749082693488 531.2911176881903L1321.4749082693488 531.2911176881903Q1319.9719859331021 532.0425788563136 1315.150110104311 532.0425788563136Q1310.349108196856 532.0425788563136 1309.221916444671 531.3746133735374Q1308.0947246924857 530.6857739694243 1308.0947246924857 527.2415769488589L1308.0947246924857 527.2415769488589L1307.48938097372 499.7297486270093Q1307.48938097372 485.3058689833082 1307.635498423077 481.4024456933341L1307.635498423077 481.4024456933341L1308.0947246924857 472.5310291252111Q1308.0947246924857 468.3144970151856 1309.4515295793753 467.5630358470622Q1310.7874605449279 466.8115746789389 1314.6282620708917 466.8115746789389Q1318.4690635968554 466.8115746789389 1321.1617994492976 467.2708009483476L1321.1617994492976 467.2708009483476Q1321.4749082693488 473.8878340121005 1321.4749082693488 477.6451398527173L1321.4749082693488 477.6451398527173ZM1357.837279237985 486.8087913195549L1357.837279237985 486.8087913195549Q1357.837279237985 500.0428574470607 1369.714540478601 500.0428574470607L1369.714540478601 500.0428574470607Q1375.4131210035366 500.0428574470607 1378.5024613613773 496.11856023574984Q1381.5918017192175 492.2151369457757 1381.5918017192175 485.53548211801257Q1381.5918017192175 478.8349533689126 1378.5024613613773 475.62036948305155Q1375.4131210035366 472.38491167585374 1370.006775377316 472.38491167585374Q1364.6004297510954 472.38491167585374 1361.2188544945402 476.2048392804808Q1357.837279237985 480.0456408064447 1357.837279237985 486.8087913195549ZM1367.1470481541796 537.4489244825345L1367.1470481541796 537.4489244825345L1364.1412034816863 537.4489244825345Q1361.4484676292445 537.4489244825345 1356.0421220030235 536.2591109663392L1356.0421220030235 536.2591109663392Q1351.3663636235892 536.2591109663392 1351.3663636235892 547.8232633869043L1351.3663636235892 547.8232633869043Q1351.3663636235892 562.101025581248 1372.720385151095 562.8524867493713L1372.720385151095 562.8524867493713Q1382.4893803366986 562.8524867493713 1388.187960861634 559.0325591447443Q1393.907415307906 555.1917576187805 1393.907415307906 547.8232633869043L1393.907415307906 547.8232633869043Q1393.907415307906 540.9139954244367 1386.8520298960811 539.1188381894754L1386.8520298960811 539.1188381894754Q1380.8403405510944 537.4489244825345 1367.1470481541796 537.4489244825345ZM1392.6967278703742 479.148062188964L1392.6967278703742 479.148062188964Q1393.3020715891398 482.75925058022347 1393.3020715891398 483.80294664706145L1393.3020715891398 483.80294664706145Q1393.3020715891398 493.86417673137976 1386.246686177315 501.5457797833074L1386.246686177315 501.5457797833074Q1384.1384201223023 503.8001632876775 1378.7320744960816 506.2006642414049Q1373.325728869861 508.6011651951323 1367.0009307048226 508.89340009384694L1367.0009307048226 508.89340009384694Q1361.135358809193 508.89340009384694 1359.6324364729462 509.58223949796Q1358.1295141366995 510.2502049807363 1357.1693137552083 510.8555486995023Q1356.188239452381 511.46089241826843 1355.7290131829723 512.3584710357491L1355.7290131829723 512.3584710357491Q1354.5391996667768 514.4667370907619 1354.5391996667768 516.7837423591423Q1354.5391996667768 519.1216215488594 1355.499400048268 520.541048199759Q1356.4804743510954 521.9813487719954 1357.4615486539233 522.6493142547718Q1358.4426229567512 523.3381536588847 1360.8431239104784 523.7765060069568L1360.8431239104784 523.7765060069568Q1364.454312301738 524.2357322763655 1375.2670035541796 524.4653454110698Q1386.100568727958 524.6740846244375 1391.9452667022506 525.8847720619694L1391.9452667022506 525.8847720619694Q1408.6444037716587 529.6420779025864 1408.6444037716587 544.9635361637681L1408.6444037716587 544.9635361637681Q1408.6444037716587 552.7912566650531 1402.8414536400392 558.9490634593973Q1397.0593774297568 565.1068702537414 1388.7306828163896 568.0500931622246Q1380.3811142816858 570.9724421493711 1373.0961157351562 570.9724421493711Q1365.8111171886271 570.9724421493711 1360.697006461121 570.0748635318903Q1355.5828957336148 569.1772849144097 1350.5522806914555 567.0690188593969Q1345.5216656492967 564.9607528043841 1342.5158209768033 560.8277163797056Q1339.5099763043095 556.6946799550271 1339.5099763043095 551.142216879449Q1339.5099763043095 545.5688798825341 1342.2027121567517 540.8304997390896Q1344.9163219305306 536.1129935169819 1348.3605189510959 533.6916186419178L1348.3605189510959 533.6916186419178Q1341.7643598086797 527.9930381169822 1341.7643598086797 521.5221225025866L1341.7643598086797 521.5221225025866Q1341.7643598086797 518.0779254820213 1343.1002907742322 515.3643157082424Q1344.457095661122 512.6507059344638 1345.897396233358 511.46089241826843Q1347.3168228842578 510.2502049807363 1349.8008195233324 508.7472826444896Q1352.2848161624065 507.2443603082429 1353.1823947798875 506.4928991401195L1353.1823947798875 506.4928991401195Q1350.3226675567512 504.2385156357495 1348.7362495351576 502.58947585014545Q1347.1707054349004 500.9404360645414 1345.2920525145923 496.8073996398629Q1343.4133995942839 492.6743632151844 1343.4133995942839 487.56025248767827L1343.4133995942839 487.56025248767827Q1343.4133995942839 477.49902240335996 1351.449859308936 471.32034168767905Q1359.4863190235887 465.16253489333485 1371.739310848267 465.16253489333485Q1383.9923026729452 465.16253489333485 1388.9394220297572 471.0281067889644L1388.9394220297572 471.0281067889644Q1398.5622997660034 464.4110737252115 1405.3254502791137 464.4110737252115L1405.3254502791137 464.4110737252115Q1407.4337163341265 464.4110737252115 1408.5609080863114 467.2708009483476Q1409.6880998384963 470.1305281714837 1409.6880998384963 472.90675970927276Q1409.6880998384963 475.68299124706186 1408.9366386703732 476.37183065117495Q1408.1851775022496 477.03979613395126 1406.2230288965943 477.03979613395126L1406.2230288965943 477.03979613395126Q1398.1239474179315 477.03979613395126 1392.6967278703742 479.148062188964ZM1421.4192436297558 525.2794283432036L1421.4192436297558 525.2794283432036L1422.170704797879 472.82326402392573L1422.170704797879 425.94043670156293Q1422.170704797879 423.3938182984782 1423.673627134126 422.1831308609461Q1425.1765494703723 420.97244342341406 1430.8751299953078 420.97244342341406Q1436.59458444158 420.97244342341406 1436.59458444158 423.97828809590743L1436.59458444158 423.97828809590743L1436.59458444158 428.194820205933Q1436.281475621529 435.70943188716655 1436.281475621529 443.07792611904284Q1436.281475621529 450.4464203509191 1436.3649713068758 460.13191985117567Q1436.448466992223 469.8174193514323 1436.448466992223 471.32034168767905L1436.448466992223 471.32034168767905Q1443.211617505333 468.0222621164709 1449.4320460636873 466.6028354655713Q1455.6733485433788 465.16253489333485 1458.8253106652296 465.16253489333485L1458.8253106652296 465.16253489333485Q1473.4161816796245 465.16253489333485 1478.6764098564881 472.67714657456844Q1483.9366380333518 480.191758255802 1483.9366380333518 498.22682629076263Q1483.9366380333518 516.2618943257232 1483.7070248986474 519.2051172342063Q1483.477411763943 522.1274662213527 1483.477411763943 524.3818497257228L1483.477411763943 524.3818497257228L1483.477411763943 527.3876943982162Q1483.477411763943 530.3935390707097 1482.120606877054 530.9988827894757L1482.120606877054 530.9988827894757Q1478.8225273058456 532.1886963056711 1475.733186948005 532.1886963056711Q1472.6647205115014 532.1886963056711 1471.4540330739692 531.8964614069564Q1470.2642195577741 531.6042265082417 1469.804993288365 530.3935390707097Q1469.3457670189564 529.1828516331775 1469.2831452549462 528.5983818357483Q1469.1996495695994 527.9930381169822 1469.2831452549462 525.5925371632549Q1469.3457670189564 523.1711622881908 1469.3457670189564 522.27358367071L1469.3457670189564 522.27358367071L1469.5127583896506 493.86417673137976Q1469.5127583896506 483.80294664706145 1466.42341803181 479.669910222383Q1463.3340776739697 475.5368737977045 1453.126730140294 475.5368737977045L1453.126730140294 475.5368737977045Q1436.886819340295 475.5368737977045 1436.886819340295 480.797101974568L1436.886819340295 480.797101974568L1436.7407018909375 493.71805928202247Q1436.7407018909375 515.0720808095278 1436.5110887562332 520.0192001663399Q1436.281475621529 524.9871934444889 1436.3649713068758 526.4066200953885Q1436.448466992223 527.846920667625 1436.281475621529 528.9741124198099Q1436.1353581721714 530.101304171995 1435.3838970040479 530.6857739694243L1435.3838970040479 530.6857739694243Q1434.0270921171586 532.1886963056711 1429.8314339284698 532.1886963056711Q1425.6149018184442 532.1886963056711 1424.258096931555 531.8964614069564L1424.258096931555 531.8964614069564Q1421.4192436297558 531.1450002388331 1421.4192436297558 525.2794283432036ZM1598.012618138745 485.3058689833082L1598.012618138745 485.3058689833082L1571.8575947037843 485.1597515339509Q1555.7638013531428 514.3206196414045 1553.8225266688241 517.4725817632552Q1551.8603780631688 520.624543885106 1550.0652208282072 524.5279671750801L1550.0652208282072 524.5279671750801Q1545.8486887181816 533.6916186419178 1543.1559528657394 533.6916186419178L1543.1559528657394 533.6916186419178Q1536.685037251344 533.6916186419178 1533.9714274775652 530.6857739694243L1533.9714274775652 530.6857739694243Q1533.8253100282077 530.3935390707097 1533.8253100282077 529.7881953519436Q1533.8253100282077 529.1828516331775 1534.8063843310356 527.4711900835632Q1535.7874586338635 525.7386546126122 1537.9583464528864 522.7328099401188Q1540.150108193246 519.7269652676252 1540.9015693613696 518.5162778300933L1540.9015693613696 518.5162778300933Q1558.9366373963298 486.51655642084023 1573.5901301747358 461.6348421874224Q1588.2436229531413 436.7531279540046 1590.2683933228068 432.9332003493775Q1592.2931636924727 429.09239882341365 1593.7960860287194 427.151124139095L1593.7960860287194 427.151124139095Q1596.5096958024978 425.4812104321542 1600.0373885084105 425.4812104321542Q1603.565081214323 425.4812104321542 1604.6087772811607 425.7943192522056Q1605.6733472693359 426.0865541509202 1606.424808437459 426.92151100439065Q1607.1762696055825 427.73559393652425 1607.5520001896439 428.3409376552903Q1607.9277307737057 428.94628137405635 1608.6791919418292 430.5953211596604Q1609.4306531099523 432.2443609452644 1611.0796928955565 435.8555493365239Q1612.7287326811606 439.46673772778337 1621.7462666986407 456.66684890927354Q1630.7638007161213 473.8878340121005 1633.7696453886147 480.65098452521073Q1636.775490061108 487.4141350383209 1639.635217284244 494.0311681020739L1639.635217284244 494.0311681020739Q1645.6469066292311 507.7035865776516 1650.5314042220325 516.3453900110702Q1655.4159018148348 524.9871934444889 1655.4159018148348 527.6799292969308L1655.4159018148348 527.6799292969308Q1655.4159018148348 529.3498430038717 1650.8236391207474 531.5207308228946Q1646.2522503479972 533.6916186419178 1644.436219191699 533.6916186419178L1644.436219191699 533.6916186419178Q1641.284257069848 533.6916186419178 1638.5915212174064 525.5925371632549L1638.5915212174064 525.5925371632549L1635.73179399427 519.8730827169827Q1632.872066771134 513.7152759226385 1628.071064863679 503.71666760233046Q1623.2491890348874 493.71805928202247 1618.8865394755048 484.8466427138995L1618.8865394755048 484.8466427138995Q1615.4423424549395 485.01363408459355 1611.83115406368 485.01363408459355L1611.83115406368 485.01363408459355Q1608.3660831217776 485.3058689833082 1598.012618138745 485.3058689833082ZM1577.55617522872 474.93153007893847L1577.55617522872 474.93153007893847L1593.9422034780764 474.7854126295812L1614.0855375680499 474.7854126295812Q1612.5826152318032 471.77956795708775 1610.5578448621377 467.2708009483476Q1608.5330744924718 462.7620339396075 1608.15734390841 462.09406845683117Q1607.7816133243487 461.405229052718 1607.030152156225 459.756189267114Q1606.2786909881015 458.10714948150996 1605.5272298199784 456.6042271452633Q1604.7757686518548 455.10130480901654 1603.7946943490274 452.9930387540038Q1602.8136200461995 450.88477269899107 1601.916041428719 449.15223722803995Q1601.0184628112384 447.44057567842566 1600.1000102724206 445.9376533421789L1600.1000102724206 445.9376533421789Q1598.158735588102 442.4725824002768 1597.4072744199789 442.4725824002768Q1596.6558132518553 442.4725824002768 1595.445125814323 444.0590004218705Q1594.255312298128 445.62454452212756 1592.6688942765345 448.192036846549Q1591.0824762549405 450.7386552496337 1589.746545289388 453.1391562033611L1589.746545289388 453.1391562033611Q1585.6761306287194 460.6537678845947 1585.0081651459432 461.71833787276944Q1584.3193257418302 462.7620339396075 1583.3591253603395 464.5571911745688Q1582.3780510575116 466.3732223308669 1580.6455155865606 469.3790670033604Q1578.9129801156096 472.38491167585374 1577.55617522872 474.93153007893847ZM1720.0415622734436 521.5221225025866L1720.0415622734436 521.5221225025866Q1722.5881806765283 521.5221225025866 1722.5881806765283 525.1333108938461L1722.5881806765283 525.1333108938461Q1722.5881806765283 533.6916186419178 1700.3574544528788 533.6916186419178L1700.3574544528788 533.6916186419178Q1690.88069416599 533.6916186419178 1683.5121999341136 530.6857739694243Q1676.164579623574 527.6799292969308 1672.0941649629058 522.8789273894761L1672.0941649629058 522.8789273894761Q1663.6819746641918 512.9638147545152 1663.6819746641918 500.79431861518407L1663.6819746641918 500.79431861518407Q1663.6819746641918 485.1597515339509 1675.4131184554508 475.4533781123575Q1687.123388325373 465.7678786121009 1704.5531126415676 465.7678786121009Q1722.003710879099 465.7678786121009 1722.003710879099 470.73587189024977L1722.003710879099 470.73587189024977Q1722.003710879099 474.1800689108151 1720.7930234415667 474.6392951802239Q1719.582336004035 475.0776475282958 1718.9978662066055 475.0776475282958L1718.9978662066055 475.0776475282958L1716.2842564328266 475.0776475282958Q1698.3953058472234 475.0776475282958 1688.4801932122623 480.27525394114906Q1678.5650805773012 485.4519864326655 1678.5650805773012 498.0807088414053Q1678.5650805773012 510.70943125014503 1686.1423140225452 517.2429686285509Q1693.740421389126 523.7765060069568 1707.4128398647035 523.7765060069568L1707.4128398647035 523.7765060069568Q1710.5648019865544 523.7765060069568 1714.6352166472225 522.6493142547718Q1718.6847573865539 521.5221225025866 1720.0415622734436 521.5221225025866ZM1779.5531120045462 532.0425788563136L1779.5531120045462 532.0425788563136Q1775.0443449958061 532.0425788563136 1775.3574538158573 527.0954594995017L1775.3574538158573 527.0954594995017Q1775.3574538158573 525.4255457925608 1774.8982275464487 525.4255457925608L1774.8982275464487 525.4255457925608Q1773.6875401089164 525.8847720619694 1770.0972256389937 527.9930381169822L1770.0972256389937 527.9930381169822Q1752.2082750533905 538.9518468187812 1738.6819740271699 529.3498430038717L1738.6819740271699 529.3498430038717Q1732.5241672328257 524.9871934444889 1732.5241672328257 517.326464313898L1732.5241672328257 517.326464313898Q1732.5241672328257 505.74143797199616 1743.2533627999205 500.48120979513266Q1754.003432288352 495.22098161826915 1769.9302342683 495.22098161826915L1769.9302342683 495.22098161826915Q1772.7899614914359 495.22098161826915 1774.1467663783255 495.3670990676265L1774.1467663783255 495.3670990676265Q1774.1467663783255 492.8204806645418 1774.2928838276825 491.77678459770374L1774.2928838276825 491.77678459770374Q1774.2928838276825 483.19760292829545 1769.5545036842382 478.91844905425967Q1764.8369974621305 474.6392951802239 1756.4039332420793 474.6392951802239L1756.4039332420793 474.6392951802239Q1752.354392502748 474.6392951802239 1747.6995080446504 475.82910869641915Q1743.044623586553 477.03979613395126 1741.6878186996637 477.03979613395126Q1740.331013812774 477.03979613395126 1739.4960569593036 475.3907563483472Q1738.6819740271699 473.7417165627432 1738.6819740271699 471.0281067889644Q1738.6819740271699 468.3144970151856 1745.3616288549333 466.74895291492857Q1752.0621576040335 465.16253489333485 1758.2199643983777 465.16253489333485L1758.2199643983777 465.16253489333485Q1772.7899614914359 465.16253489333485 1780.3880688580166 472.82326402392573Q1787.9653023032606 480.5048670758534 1787.9653023032606 495.22098161826915L1787.9653023032606 495.22098161826915L1787.9653023032606 526.1770069606841Q1787.9653023032606 530.2474216213523 1786.4623799670135 531.1450002388331Q1784.9594576307672 532.0425788563136 1779.5531120045462 532.0425788563136ZM1774.000648928968 516.2618943257232L1774.000648928968 516.2618943257232Q1774.2928838276825 512.0662361370344 1774.2928838276825 507.2443603082429Q1774.2928838276825 502.4433584007881 1774.1467663783255 501.83801468202205L1774.1467663783255 501.83801468202205Q1753.398088569586 503.8001632876775 1748.889321560846 509.35262636325564L1748.889321560846 509.35262636325564Q1746.4888206071182 512.2123535863918 1746.4888206071182 515.9696594270085L1746.4888206071182 515.9696594270085Q1746.4888206071182 523.9226234563141 1758.3660818477347 523.9226234563141L1758.3660818477347 523.9226234563141Q1764.3777711927219 523.9226234563141 1769.1161513361662 521.1463919185251Q1773.8545314796106 518.3701603807359 1774.000648928968 516.2618943257232ZM1871.5444833356473 429.55162509282235L1871.5444833356473 433.4550483827965L1871.6906007850043 493.42582438330777L1871.6906007850043 523.9226234563141Q1871.6906007850043 525.2794283432036 1871.6071050996575 525.7386546126122Q1871.5444833356473 526.1770069606841 1871.4609876503 527.2415769488589Q1871.3774919649532 528.2852730156969 1871.2313745155957 528.7444992851056L1871.2313745155957 528.7444992851056Q1870.62603079683 530.539656520067 1870.2503002127683 530.8527653401184Q1869.8745696287065 531.1450002388331 1869.4362172806345 531.4372351375476L1869.4362172806345 531.4372351375476Q1868.3716472924598 532.0425788563136 1864.4682240024854 532.0425788563136Q1860.5648007125114 532.0425788563136 1859.2079958256222 531.6042265082417L1859.2079958256222 531.6042265082417Q1858.9157609269073 530.8527653401184 1858.7696434775498 528.890616734463Q1858.602652106856 526.9284681288075 1858.4565346574987 526.3439983313783L1858.4565346574987 526.3439983313783Q1855.3045725356478 528.5983818357483 1848.3118088878332 531.1450002388331Q1841.3190452400186 533.6916186419178 1835.7665821644405 533.6916186419178L1835.7665821644405 533.6916186419178Q1821.7810548688117 533.6916186419178 1813.139251435393 524.2357322763655Q1804.4974480019741 514.7589719894765 1804.4974480019741 500.79431861518407L1804.4974480019741 500.79431861518407Q1804.4974480019741 481.4024456933341 1821.3427025207397 470.88198933960706L1821.3427025207397 470.88198933960706Q1829.6087753700967 465.16253489333485 1842.3836152281938 465.16253489333485L1842.3836152281938 465.16253489333485Q1845.827812248759 465.16253489333485 1857.7050734893755 468.3144970151856L1857.7050734893755 468.3144970151856L1857.8511909387325 461.71833787276944L1857.8511909387325 453.74449992212715Q1857.8511909387325 436.92011932469865 1858.0808040734373 434.0603921015625Q1858.3104172081416 431.2006648784264 1858.3104172081416 428.4870551046476Q1858.3104172081416 425.7943192522056 1858.4565346574987 424.9593623987352Q1858.602652106856 424.14527946660155 1859.2079958256222 422.9345920290695L1859.2079958256222 422.9345920290695Q1860.2725658137965 421.1394347941081 1864.0298716544135 421.1394347941081Q1867.7871774950304 421.1394347941081 1869.0604866965728 421.7239045915374Q1870.333795898115 422.3292483103034 1870.9391396168812 423.97828809590743L1870.9391396168812 423.97828809590743Q1871.5444833356473 426.23267160027757 1871.5444833356473 429.55162509282235L1871.5444833356473 429.55162509282235ZM1819.380553915084 497.47536512263923L1819.380553915084 497.47536512263923Q1819.380553915084 509.6448612619703 1825.7053520801223 516.4915074604276Q1832.009276323824 523.3381536588847 1842.8219675762653 523.3381536588847L1842.8219675762653 523.3381536588847Q1848.249187123823 523.3381536588847 1851.8395015937458 522.27358367071L1851.8395015937458 522.27358367071Q1858.0181823094267 520.3323089863914 1858.0181823094267 516.8672380444892L1858.0181823094267 516.8672380444892L1858.0181823094267 489.06317482392495Q1858.0181823094267 479.148062188964 1857.0997297706094 478.08349220078924L1857.0997297706094 478.08349220078924Q1856.2021511531284 476.58056986454255 1851.6307623803782 475.7664869324089Q1847.0384996862908 474.93153007893847 1842.5297326775508 474.93153007893847L1842.5297326775508 474.93153007893847Q1832.3015112225385 474.93153007893847 1825.9975869788373 481.2563282439768Q1819.6936627351356 487.56025248767827 1819.380553915084 497.47536512263923ZM1946.3774913279317 494.7826292701972L1946.3774913279317 494.7826292701972Q1946.3774913279317 494.7826292701972 1911.9563950436145 494.9287467195545L1911.9563950436145 494.9287467195545Q1906.4039319680364 494.9287467195545 1905.5063533505554 495.8263253370352L1905.5063533505554 495.8263253370352Q1904.7548921824323 496.8700214038732 1904.7548921824323 499.2913962789373L1904.7548921824323 499.2913962789373Q1904.7548921824323 511.00166614885967 1911.4345470101953 517.2429686285509Q1918.1350757592954 523.4842711082422 1926.693383507367 523.4842711082422Q1935.2516912554383 523.4842711082422 1940.07356708423 521.229887603872L1940.07356708423 521.229887603872Q1940.219684533587 521.229887603872 1943.0794117567234 519.2677389982166Q1945.9391389798598 517.326464313898 1947.0663307320447 517.326464313898Q1948.1935224842296 517.326464313898 1948.777992281659 518.2240429313786Q1949.383336000425 519.1216215488594 1949.383336000425 520.0192001663399L1949.383336000425 520.0192001663399Q1949.383336000425 525.7386546126122 1940.9711457017106 529.7255735879334Q1932.5589554029966 533.6916186419178 1921.3496596451564 533.6916186419178Q1910.161237808653 533.6916186419178 1900.016512038988 524.6740846244375Q1889.8717862693225 515.6565506069571 1889.8717862693225 500.33509234577537Q1889.8717862693225 485.01363408459355 1899.4111683202218 475.0776475282958Q1908.9505503711212 465.16253489333485 1925.0443437217627 465.16253489333485L1925.0443437217627 465.16253489333485Q1936.754613591685 465.16253489333485 1943.976990374204 472.0718028558024L1943.976990374204 472.0718028558024Q1951.6377195047949 479.29417963832134 1951.6377195047949 489.5224010933337L1951.6377195047949 489.5224010933337Q1951.6377195047949 494.7826292701972 1946.3774913279317 494.7826292701972ZM1907.301510585517 487.4141350383209L1907.301510585517 487.4141350383209Q1935.8570349742045 487.4141350383209 1940.3658019829445 487.1010262182695L1940.3658019829445 487.1010262182695Q1939.9274496348726 481.08933687328266 1935.7944132101943 477.18591358330855Q1931.661376785516 473.28249029333443 1925.3365786204777 473.28249029333443Q1919.032654376776 473.28249029333443 1913.542813065208 477.70776161672757Q1908.0529717536406 482.1539068614574 1907.301510585517 487.4141350383209ZM1976.4359380528658 466.66545722958153L1976.4359380528658 466.66545722958153L1982.9068536672617 466.8115746789389Q1983.0529711166191 466.97856604963295 1984.2636585541509 471.92568540644504L1984.2636585541509 471.92568540644504Q1985.4534720703464 471.4873330583731 1990.567582797852 469.3790670033604L1990.567582797852 469.3790670033604Q2000.9419217022219 465.30865234269214 2006.8074935978516 465.30865234269214L2006.8074935978516 465.30865234269214Q2016.5764887834553 465.30865234269214 2022.4211867577483 473.28249029333443L2022.4211867577483 473.28249029333443L2023.9241090939945 472.23879422649645Q2025.5940228009358 471.1742242383217 2026.0323751490073 470.88198933960706L2026.0323751490073 470.88198933960706L2027.8484063053056 469.8174193514323Q2029.3513286415523 468.9198407339516 2030.1027898096759 468.627605835237Q2030.854250977799 468.3144970151856 2032.4197950780563 467.5630358470622Q2034.0062130996498 466.8115746789389 2035.1334048518347 466.51933978022424Q2036.26059660402 466.2271048815096 2037.7635189402667 465.7678786121009L2037.7635189402667 465.7678786121009Q2040.6232461634027 465.16253489333485 2044.2135606333254 465.16253489333485L2044.2135606333254 465.16253489333485Q2059.9942451639163 465.16253489333485 2064.356894723299 480.191758255802L2064.356894723299 480.191758255802Q2065.56758216083 483.5107117483468 2065.859817059545 496.11856023574984L2065.859817059545 496.11856023574984L2065.859817059545 524.0896148270082Q2065.859817059545 529.1828516331775 2064.127281588594 530.623152205414Q2062.41562003898 532.0425788563136 2057.6772398955354 532.0425788563136Q2052.938859752091 532.0425788563136 2051.9577854492636 531.3746133735374Q2050.9767111464353 530.6857739694243 2050.9767111464353 527.9930381169822L2050.9767111464353 527.9930381169822L2051.435937415844 518.9755040995019L2051.435937415844 500.9404360645414Q2051.435937415844 500.33509234577537 2051.435937415844 497.03701277456724Q2051.435937415844 493.71805928202247 2051.352441730497 491.31755832829504Q2051.289819966487 488.91705737456766 2050.6009805623744 485.3058689833082Q2049.9330150795977 481.6946805920487 2048.5762101927085 480.191758255802L2048.5762101927085 480.191758255802Q2044.8189043520915 475.9961000671133 2037.450410120215 475.9961000671133L2037.450410120215 475.9961000671133Q2023.485756745923 475.9961000671133 2023.485756745923 485.1597515339509L2023.485756745923 485.1597515339509L2023.9241090939945 498.8321700095286L2023.9241090939945 519.2677389982166Q2023.9241090939945 525.8847720619694 2022.7342955777995 527.9930381169822L2022.7342955777995 527.9930381169822Q2022.1289518590334 529.0367341838203 2020.0206858040206 529.0367341838203L2020.0206858040206 529.0367341838203Q2011.6084955053066 529.0367341838203 2010.251690618417 526.9284681288075L2010.251690618417 526.9284681288075Q2009.2079945515793 525.4255457925608 2009.4376076862836 522.27358367071Q2009.6463468996512 519.1216215488594 2009.6463468996512 518.6623952794505L2009.6463468996512 518.6623952794505L2010.3978080677743 492.06901949641843Q2010.3978080677743 483.5107117483468 2007.5589547659752 480.3378757051593Q2004.6992275428393 477.18591358330855 1998.687538197852 477.18591358330855L1998.687538197852 477.18591358330855Q1984.2636585541509 477.18591358330855 1984.2636585541509 482.75925058022347L1984.2636585541509 482.75925058022347L1984.5558934528653 495.07486416891186L1984.2636585541509 521.0837701545147Q1984.2636585541509 521.9813487719954 1984.3262803181615 523.8600016923037Q1984.4097760035083 525.7386546126122 1984.2636585541509 526.3439983313783L1984.2636585541509 526.3439983313783L1984.0966671834572 528.1391555663396Q1983.9505497340997 529.3498430038717 1983.6583148353848 529.7881953519436L1983.6583148353848 529.7881953519436Q1981.8422836790864 531.4372351375476 1980.6524701628914 531.6042265082417L1980.6524701628914 531.6042265082417Q1977.3335166703464 532.0425788563136 1975.4548637500384 532.0425788563136Q1973.5762108297295 532.0425788563136 1972.9082453469537 531.8964614069564Q1972.240279864177 531.7503439575991 1971.7810535947683 531.3746133735374Q1971.3218273253597 530.9988827894757 1971.0295924266452 530.623152205414Q1970.7373575279303 530.2474216213523 1970.5077443932264 529.4124647678819Q1970.2781312585216 528.5983818357483 1970.1946355731748 527.9095424316353Q1970.1320138091642 527.2415769488589 1970.1320138091642 525.8847720619694L1970.1320138091642 525.8847720619694L1970.1320138091642 518.2240429313786L1970.7373575279303 486.9549087689122L1971.0295924266452 474.49317773086653L1971.3218273253597 471.4873330583731Q1971.3218273253597 469.67130190207496 1972.15678417883 468.54411014988995Q1972.9917410323005 467.41691839770493 1973.4300933803725 467.2708009483476L1973.4300933803725 467.2708009483476Q1975.2461245366708 466.66545722958153 1976.4359380528658 466.66545722958153ZM2117.5645202107 506.63901658947685L2117.5645202107 506.63901658947685Q2119.9650211644266 504.2385156357495 2121.6140609500317 500.9404360645414L2121.6140609500317 500.9404360645414L2123.7223270050436 496.7239039545159Q2124.32767072381 495.8263253370352 2129.4417814513163 485.91121270207424L2129.4417814513163 485.91121270207424Q2140.1083552544005 465.16253489333485 2142.5088562081282 465.16253489333485L2142.5088562081282 465.16253489333485Q2144.0117785443745 465.16253489333485 2146.641892632806 466.51933978022424Q2149.2720067212376 467.87614466711364 2149.5851155412893 468.9198407339516L2149.5851155412893 468.9198407339516Q2149.5851155412893 469.67130190207496 2134.1801615947606 499.06178314423295Q2118.775207648232 528.4313904650542 2117.5645202107 530.8527653401184L2117.5645202107 530.8527653401184Q2099.9886784451483 567.3612537581116 2096.982833772654 567.3612537581116L2096.982833772654 567.3612537581116Q2094.5614588975905 567.3612537581116 2091.722605595791 566.0879445565693Q2088.8628783726544 564.8146353550269 2088.5497695526037 563.7500653668521L2088.5497695526037 563.7500653668521Q2088.5497695526037 562.8524867493713 2090.8041530569735 557.9053673925594L2090.8041530569735 557.9053673925594Q2092.4740667639144 554.8995227200658 2095.4799114364077 549.6392945432024L2095.4799114364077 549.6392945432024Q2102.535296848233 537.3028070331773 2103.9547234991323 534.0673492259793Q2105.3950240713684 530.8527653401184 2106.9605681716257 528.2226512516866Q2108.5469861932197 525.5925371632549 2109.757673630751 523.3381536588847Q2110.9474871469465 521.0837701545147 2110.9474871469465 520.3323089863914Q2110.9474871469465 519.580847818268 2107.2736769916773 514.7589719894765Q2103.5789929150706 509.9579700820217 2099.9886784451483 504.76036366916844Q2096.3774900538883 499.58363117765197 2092.0148404945057 493.1127155632564Q2087.652190935123 486.6626738701976 2086.4623774189276 484.8466427138995L2086.4623774189276 484.8466427138995L2082.9973064770256 479.586414537036Q2078.0293131988765 472.23879422649645 2078.0293131988765 470.5062587555454Q2078.0293131988765 468.7737232845943 2081.4943841407785 466.97856604963295Q2084.9594550826805 465.16253489333485 2086.6084948682847 465.16253489333485Q2088.257534653889 465.16253489333485 2091.117261877025 468.105757801818Q2093.9769891001606 471.0281067889644 2097.7342949407775 476.37183065117495Q2101.4916007813945 481.6946805920487 2104.6435629032458 486.51655642084023Q2107.795525025096 491.31755832829504 2111.845065764427 497.7884739426906Q2115.9154804250957 504.2385156357495 2117.5645202107 506.63901658947685Z " fill="#fcedda" transform="matrix(0.4070553051910893,0,0,0.4070553051910893,0,98.11177255637848)"/></g></svg>